<?xml version="1.0" encoding="utf-8" standalone="no"?>
<!DOCTYPE svg PUBLIC "-//W3C//DTD SVG 1.1//EN"
  "http://www.w3.org/Graphics/SVG/1.1/DTD/svg11.dtd">
<svg xmlns:xlink="http://www.w3.org/1999/xlink" width="460.8pt" height="345.6pt" viewBox="0 0 460.8 345.6" xmlns="http://www.w3.org/2000/svg" version="1.1">
 <metadata>
  <rdf:RDF xmlns:dc="http://purl.org/dc/elements/1.1/" xmlns:cc="http://creativecommons.org/ns#" xmlns:rdf="http://www.w3.org/1999/02/22-rdf-syntax-ns#">
   <cc:Work>
    <dc:type rdf:resource="http://purl.org/dc/dcmitype/StillImage"/>
    <dc:date>2024-03-09T21:33:16.759128</dc:date>
    <dc:format>image/svg+xml</dc:format>
    <dc:creator>
     <cc:Agent>
      <dc:title>Matplotlib v3.8.3, https://matplotlib.org/</dc:title>
     </cc:Agent>
    </dc:creator>
   </cc:Work>
  </rdf:RDF>
 </metadata>
 <defs>
  <style type="text/css">*{stroke-linejoin: round; stroke-linecap: butt}</style>
 </defs>
 <g id="figure_1">
  <g id="patch_1">
   <path d="M 0 345.6 
L 460.8 345.6 
L 460.8 0 
L 0 0 
L 0 345.6 
z
" style="fill: none"/>
  </g>
  <g id="axes_1">
   <g id="patch_2">
    <path d="M 57.6 307.584 
L 414.72 307.584 
L 414.72 41.472 
L 57.6 41.472 
L 57.6 307.584 
z
" style="fill: none"/>
   </g>
   <g id="patch_3">
    <path d="M 64.512 174.528 
L 73.728 174.528 
L 73.728 174.528 
L 64.512 174.528 
z
" clip-path="url(#p01226089bb)" style="fill: #00bfff; stroke: #0000ff; stroke-linejoin: miter"/>
   </g>
   <g id="patch_4">
    <path d="M 76.032 174.528 
L 85.248 174.528 
L 85.248 174.528 
L 76.032 174.528 
z
" clip-path="url(#p01226089bb)" style="fill: #00bfff; stroke: #0000ff; stroke-linejoin: miter"/>
   </g>
   <g id="patch_5">
    <path d="M 87.552 174.528 
L 96.768 174.528 
L 96.768 174.528 
L 87.552 174.528 
z
" clip-path="url(#p01226089bb)" style="fill: #00bfff; stroke: #0000ff; stroke-linejoin: miter"/>
   </g>
   <g id="patch_6">
    <path d="M 99.072 174.528 
L 108.288 174.528 
L 108.288 174.528 
L 99.072 174.528 
z
" clip-path="url(#p01226089bb)" style="fill: #00bfff; stroke: #0000ff; stroke-linejoin: miter"/>
   </g>
   <g id="patch_7">
    <path d="M 110.592 174.528 
L 119.808 174.528 
L 119.808 174.528 
L 110.592 174.528 
z
" clip-path="url(#p01226089bb)" style="fill: #00bfff; stroke: #0000ff; stroke-linejoin: miter"/>
   </g>
   <g id="patch_8">
    <path d="M 122.112 174.528 
L 131.328 174.528 
L 131.328 174.528 
L 122.112 174.528 
z
" clip-path="url(#p01226089bb)" style="fill: #00bfff; stroke: #0000ff; stroke-linejoin: miter"/>
   </g>
   <g id="patch_9">
    <path d="M 133.632 174.528 
L 142.848 174.528 
L 142.848 174.528 
L 133.632 174.528 
z
" clip-path="url(#p01226089bb)" style="fill: #00bfff; stroke: #0000ff; stroke-linejoin: miter"/>
   </g>
   <g id="patch_10">
    <path d="M 145.152 174.528 
L 154.368 174.528 
L 154.368 174.528 
L 145.152 174.528 
z
" clip-path="url(#p01226089bb)" style="fill: #00bfff; stroke: #0000ff; stroke-linejoin: miter"/>
   </g>
   <g id="patch_11">
    <path d="M 156.672 174.528 
L 165.888 174.528 
L 165.888 174.528 
L 156.672 174.528 
z
" clip-path="url(#p01226089bb)" style="fill: #00bfff; stroke: #0000ff; stroke-linejoin: miter"/>
   </g>
   <g id="patch_12">
    <path d="M 168.192 174.528 
L 177.408 174.528 
L 177.408 174.528 
L 168.192 174.528 
z
" clip-path="url(#p01226089bb)" style="fill: #00bfff; stroke: #0000ff; stroke-linejoin: miter"/>
   </g>
   <g id="patch_13">
    <path d="M 179.712 174.528 
L 188.928 174.528 
L 188.928 174.528 
L 179.712 174.528 
z
" clip-path="url(#p01226089bb)" style="fill: #00bfff; stroke: #0000ff; stroke-linejoin: miter"/>
   </g>
   <g id="patch_14">
    <path d="M 191.232 174.528 
L 200.448 174.528 
L 200.448 174.528 
L 191.232 174.528 
z
" clip-path="url(#p01226089bb)" style="fill: #00bfff; stroke: #0000ff; stroke-linejoin: miter"/>
   </g>
   <g id="patch_15">
    <path d="M 202.752 174.528 
L 211.968 174.528 
L 211.968 174.528 
L 202.752 174.528 
z
" clip-path="url(#p01226089bb)" style="fill: #00bfff; stroke: #0000ff; stroke-linejoin: miter"/>
   </g>
   <g id="patch_16">
    <path d="M 214.272 174.528 
L 223.488 174.528 
L 223.488 174.528 
L 214.272 174.528 
z
" clip-path="url(#p01226089bb)" style="fill: #00bfff; stroke: #0000ff; stroke-linejoin: miter"/>
   </g>
   <g id="patch_17">
    <path d="M 225.792 174.528 
L 235.008 174.528 
L 235.008 174.528 
L 225.792 174.528 
z
" clip-path="url(#p01226089bb)" style="fill: #00bfff; stroke: #0000ff; stroke-linejoin: miter"/>
   </g>
   <g id="patch_18">
    <path d="M 237.312 174.528 
L 246.528 174.528 
L 246.528 174.528 
L 237.312 174.528 
z
" clip-path="url(#p01226089bb)" style="fill: #00bfff; stroke: #0000ff; stroke-linejoin: miter"/>
   </g>
   <g id="patch_19">
    <path d="M 248.832 174.528 
L 258.048 174.528 
L 258.048 174.528 
L 248.832 174.528 
z
" clip-path="url(#p01226089bb)" style="fill: #00bfff; stroke: #0000ff; stroke-linejoin: miter"/>
   </g>
   <g id="patch_20">
    <path d="M 260.352 174.528 
L 269.568 174.528 
L 269.568 174.528 
L 260.352 174.528 
z
" clip-path="url(#p01226089bb)" style="fill: #00bfff; stroke: #0000ff; stroke-linejoin: miter"/>
   </g>
   <g id="patch_21">
    <path d="M 271.872 174.528 
L 281.088 174.528 
L 281.088 174.528 
L 271.872 174.528 
z
" clip-path="url(#p01226089bb)" style="fill: #00bfff; stroke: #0000ff; stroke-linejoin: miter"/>
   </g>
   <g id="patch_22">
    <path d="M 283.392 174.528 
L 292.608 174.528 
L 292.608 174.528 
L 283.392 174.528 
z
" clip-path="url(#p01226089bb)" style="fill: #00bfff; stroke: #0000ff; stroke-linejoin: miter"/>
   </g>
   <g id="patch_23">
    <path d="M 294.912 174.528 
L 304.128 174.528 
L 304.128 174.528 
L 294.912 174.528 
z
" clip-path="url(#p01226089bb)" style="fill: #00bfff; stroke: #0000ff; stroke-linejoin: miter"/>
   </g>
   <g id="patch_24">
    <path d="M 306.432 174.528 
L 315.648 174.528 
L 315.648 174.528 
L 306.432 174.528 
z
" clip-path="url(#p01226089bb)" style="fill: #00bfff; stroke: #0000ff; stroke-linejoin: miter"/>
   </g>
   <g id="patch_25">
    <path d="M 317.952 174.528 
L 327.168 174.528 
L 327.168 174.528 
L 317.952 174.528 
z
" clip-path="url(#p01226089bb)" style="fill: #00bfff; stroke: #0000ff; stroke-linejoin: miter"/>
   </g>
   <g id="patch_26">
    <path d="M 329.472 174.528 
L 338.688 174.528 
L 338.688 174.528 
L 329.472 174.528 
z
" clip-path="url(#p01226089bb)" style="fill: #00bfff; stroke: #0000ff; stroke-linejoin: miter"/>
   </g>
   <g id="patch_27">
    <path d="M 340.992 174.528 
L 350.208 174.528 
L 350.208 174.528 
L 340.992 174.528 
z
" clip-path="url(#p01226089bb)" style="fill: #00bfff; stroke: #0000ff; stroke-linejoin: miter"/>
   </g>
   <g id="patch_28">
    <path d="M 352.512 174.528 
L 361.728 174.528 
L 361.728 174.528 
L 352.512 174.528 
z
" clip-path="url(#p01226089bb)" style="fill: #00bfff; stroke: #0000ff; stroke-linejoin: miter"/>
   </g>
   <g id="patch_29">
    <path d="M 364.032 174.528 
L 373.248 174.528 
L 373.248 174.528 
L 364.032 174.528 
z
" clip-path="url(#p01226089bb)" style="fill: #00bfff; stroke: #0000ff; stroke-linejoin: miter"/>
   </g>
   <g id="patch_30">
    <path d="M 375.552 174.528 
L 384.768 174.528 
L 384.768 174.528 
L 375.552 174.528 
z
" clip-path="url(#p01226089bb)" style="fill: #00bfff; stroke: #0000ff; stroke-linejoin: miter"/>
   </g>
   <g id="patch_31">
    <path d="M 387.072 174.528 
L 396.288 174.528 
L 396.288 174.528 
L 387.072 174.528 
z
" clip-path="url(#p01226089bb)" style="fill: #00bfff; stroke: #0000ff; stroke-linejoin: miter"/>
   </g>
   <g id="patch_32">
    <path d="M 398.592 174.528 
L 407.808 174.528 
L 407.808 174.528 
L 398.592 174.528 
z
" clip-path="url(#p01226089bb)" style="fill: #00bfff; stroke: #0000ff; stroke-linejoin: miter"/>
   </g>
   <g id="matplotlib.axis_1">
    <g id="xtick_1">
     <g id="line2d_1">
      <path d="M 57.6 307.584 
L 57.6 41.472 
" clip-path="url(#p01226089bb)" style="fill: none; stroke: #b0b0b0; stroke-width: 0.8; stroke-linecap: square"/>
     </g>
     <g id="line2d_2">
      <defs>
       <path id="m1b228bfef5" d="M 0 0 
L 0 3.5 
" style="stroke: #000000; stroke-width: 0.8"/>
      </defs>
      <g>
       <use xlink:href="#m1b228bfef5" x="57.6" y="307.584" style="stroke: #000000; stroke-width: 0.8"/>
      </g>
     </g>
     <g id="text_1">
      <!-- 0 -->
      <g transform="translate(55.1 322.279312) scale(0.1 -0.1)">
       <defs>
        <path id="MS-Gothic-30" d="M 200 2500 
Q 200 3975 800 4575 
Q 1150 4925 1575 4925 
Q 2000 4925 2350 4575 
Q 2950 3975 2950 2500 
Q 2950 1000 2350 400 
Q 2000 50 1575 50 
Q 1150 50 800 400 
Q 200 1000 200 2500 
z
M 2375 2500 
Q 2375 3825 1900 4300 
Q 1750 4450 1575 4450 
Q 1400 4450 1250 4300 
Q 775 3800 775 2500 
Q 775 1150 1250 675 
Q 1400 525 1575 525 
Q 1750 525 1900 675 
Q 2375 1150 2375 2500 
z
" transform="scale(0.015625)"/>
       </defs>
       <use xlink:href="#MS-Gothic-30"/>
      </g>
     </g>
    </g>
    <g id="xtick_2">
     <g id="line2d_3">
      <path d="M 115.2 307.584 
L 115.2 41.472 
" clip-path="url(#p01226089bb)" style="fill: none; stroke: #b0b0b0; stroke-width: 0.8; stroke-linecap: square"/>
     </g>
     <g id="line2d_4">
      <g>
       <use xlink:href="#m1b228bfef5" x="115.2" y="307.584" style="stroke: #000000; stroke-width: 0.8"/>
      </g>
     </g>
     <g id="text_2">
      <!-- 5 -->
      <g transform="translate(112.7 322.279312) scale(0.1 -0.1)">
       <defs>
        <path id="MS-Gothic-35" d="M 850 1425 
Q 850 925 1100 675 
Q 1250 525 1525 525 
Q 1750 525 1950 725 
Q 2250 1025 2250 1725 
Q 2250 2375 2000 2625 
Q 1850 2775 1650 2775 
Q 1200 2775 925 2250 
L 425 2250 
L 575 4925 
L 2725 4925 
L 2725 4450 
L 1050 4450 
L 950 2825 
Q 1275 3200 1775 3200 
Q 2150 3200 2425 2925 
Q 2825 2525 2825 1725 
Q 2825 875 2350 400 
Q 2000 50 1500 50 
Q 975 50 675 350 
Q 300 725 275 1425 
L 850 1425 
z
" transform="scale(0.015625)"/>
       </defs>
       <use xlink:href="#MS-Gothic-35"/>
      </g>
     </g>
    </g>
    <g id="xtick_3">
     <g id="line2d_5">
      <path d="M 172.8 307.584 
L 172.8 41.472 
" clip-path="url(#p01226089bb)" style="fill: none; stroke: #b0b0b0; stroke-width: 0.8; stroke-linecap: square"/>
     </g>
     <g id="line2d_6">
      <g>
       <use xlink:href="#m1b228bfef5" x="172.8" y="307.584" style="stroke: #000000; stroke-width: 0.8"/>
      </g>
     </g>
     <g id="text_3">
      <!-- 10 -->
      <g transform="translate(167.8 322.279312) scale(0.1 -0.1)">
       <defs>
        <path id="MS-Gothic-31" d="M 1375 50 
L 1375 2000 
L 1375 3925 
L 625 3925 
L 625 4225 
Q 1500 4225 1650 4925 
L 1950 4925 
L 1950 50 
L 1375 50 
z
" transform="scale(0.015625)"/>
       </defs>
       <use xlink:href="#MS-Gothic-31"/>
       <use xlink:href="#MS-Gothic-30" x="50"/>
      </g>
     </g>
    </g>
    <g id="xtick_4">
     <g id="line2d_7">
      <path d="M 230.4 307.584 
L 230.4 41.472 
" clip-path="url(#p01226089bb)" style="fill: none; stroke: #b0b0b0; stroke-width: 0.8; stroke-linecap: square"/>
     </g>
     <g id="line2d_8">
      <g>
       <use xlink:href="#m1b228bfef5" x="230.4" y="307.584" style="stroke: #000000; stroke-width: 0.8"/>
      </g>
     </g>
     <g id="text_4">
      <!-- 15 -->
      <g transform="translate(225.4 322.279312) scale(0.1 -0.1)">
       <use xlink:href="#MS-Gothic-31"/>
       <use xlink:href="#MS-Gothic-35" x="50"/>
      </g>
     </g>
    </g>
    <g id="xtick_5">
     <g id="line2d_9">
      <path d="M 288 307.584 
L 288 41.472 
" clip-path="url(#p01226089bb)" style="fill: none; stroke: #b0b0b0; stroke-width: 0.8; stroke-linecap: square"/>
     </g>
     <g id="line2d_10">
      <g>
       <use xlink:href="#m1b228bfef5" x="288" y="307.584" style="stroke: #000000; stroke-width: 0.8"/>
      </g>
     </g>
     <g id="text_5">
      <!-- 20 -->
      <g transform="translate(283 322.279312) scale(0.1 -0.1)">
       <defs>
        <path id="MS-Gothic-32" d="M 2850 525 
L 2850 50 
L 300 50 
L 300 450 
Q 875 1525 1725 2500 
Q 2200 3050 2200 3650 
Q 2200 4075 1975 4300 
Q 1825 4450 1575 4450 
Q 1375 4450 1175 4250 
Q 950 4025 950 3325 
L 400 3325 
Q 425 4225 825 4625 
Q 1125 4925 1625 4925 
Q 2100 4925 2425 4600 
Q 2775 4250 2775 3625 
Q 2775 2900 2100 2125 
Q 1375 1300 900 525 
L 2850 525 
z
" transform="scale(0.015625)"/>
       </defs>
       <use xlink:href="#MS-Gothic-32"/>
       <use xlink:href="#MS-Gothic-30" x="50"/>
      </g>
     </g>
    </g>
    <g id="xtick_6">
     <g id="line2d_11">
      <path d="M 345.6 307.584 
L 345.6 41.472 
" clip-path="url(#p01226089bb)" style="fill: none; stroke: #b0b0b0; stroke-width: 0.8; stroke-linecap: square"/>
     </g>
     <g id="line2d_12">
      <g>
       <use xlink:href="#m1b228bfef5" x="345.6" y="307.584" style="stroke: #000000; stroke-width: 0.8"/>
      </g>
     </g>
     <g id="text_6">
      <!-- 25 -->
      <g transform="translate(340.6 322.279312) scale(0.1 -0.1)">
       <use xlink:href="#MS-Gothic-32"/>
       <use xlink:href="#MS-Gothic-35" x="50"/>
      </g>
     </g>
    </g>
    <g id="xtick_7">
     <g id="line2d_13">
      <path d="M 403.2 307.584 
L 403.2 41.472 
" clip-path="url(#p01226089bb)" style="fill: none; stroke: #b0b0b0; stroke-width: 0.8; stroke-linecap: square"/>
     </g>
     <g id="line2d_14">
      <g>
       <use xlink:href="#m1b228bfef5" x="403.2" y="307.584" style="stroke: #000000; stroke-width: 0.8"/>
      </g>
     </g>
     <g id="text_7">
      <!-- 30 -->
      <g transform="translate(398.2 322.279312) scale(0.1 -0.1)">
       <defs>
        <path id="MS-Gothic-33" d="M 850 1500 
Q 825 950 1075 700 
Q 1250 525 1550 525 
Q 1800 525 2025 750 
Q 2250 975 2250 1500 
Q 2250 1900 1975 2175 
Q 1775 2375 1375 2350 
L 1375 2775 
Q 1775 2800 1975 3000 
Q 2175 3200 2175 3600 
Q 2175 4100 1950 4325 
Q 1800 4475 1575 4475 
Q 1350 4475 1200 4325 
Q 950 4075 925 3575 
L 375 3575 
Q 400 4225 800 4625 
Q 1100 4925 1575 4925 
Q 2075 4925 2375 4625 
Q 2725 4275 2725 3700 
Q 2725 3175 2450 2900 
Q 2200 2650 1975 2575 
Q 2300 2475 2475 2300 
Q 2825 1950 2825 1450 
Q 2825 800 2425 400 
Q 2075 50 1550 50 
Q 975 50 650 375 
Q 275 750 275 1500 
L 850 1500 
z
" transform="scale(0.015625)"/>
       </defs>
       <use xlink:href="#MS-Gothic-33"/>
       <use xlink:href="#MS-Gothic-30" x="50"/>
      </g>
     </g>
    </g>
    <g id="text_8">
     <!-- 日付 -->
     <g transform="translate(220.16 339.880875) scale(0.16 -0.16)">
      <defs>
       <path id="MS-Gothic-65e5" d="M 1825 -225 
L 1250 -225 
L 1250 4600 
L 5175 4600 
L 5175 -125 
L 4600 -125 
L 4600 225 
L 1825 225 
L 1825 -225 
z
M 4600 2700 
L 4600 4125 
L 1825 4125 
L 1825 2700 
L 4600 2700 
z
M 4600 700 
L 4600 2225 
L 1825 2225 
L 1825 700 
L 4600 700 
z
" transform="scale(0.015625)"/>
       <path id="MS-Gothic-4ed8" d="M 2175 4675 
Q 2025 4050 1725 3425 
Q 1975 3375 1775 3225 
L 1775 -475 
L 1275 -475 
L 1275 2625 
Q 1000 2225 725 1950 
L 325 2400 
Q 1400 3425 1725 5025 
L 2250 4825 
Q 2350 4725 2175 4675 
z
M 4500 3575 
L 4500 5000 
L 4975 5000 
Q 5175 4975 5000 4850 
L 5000 3575 
L 6025 3575 
L 6025 3100 
L 5000 3100 
L 5000 0 
Q 5000 -400 4600 -400 
L 3850 -400 
L 3725 75 
L 4400 75 
Q 4500 75 4500 175 
L 4500 3100 
L 2250 3100 
L 2250 3575 
L 4500 3575 
z
M 3050 2450 
Q 3475 1925 3825 1275 
L 3325 950 
Q 2975 1675 2575 2150 
L 3050 2450 
z
" transform="scale(0.015625)"/>
      </defs>
      <use xlink:href="#MS-Gothic-65e5"/>
      <use xlink:href="#MS-Gothic-4ed8" x="100"/>
     </g>
    </g>
   </g>
   <g id="matplotlib.axis_2">
    <g id="ytick_1">
     <g id="line2d_15">
      <path d="M 57.6 271.296 
L 414.72 271.296 
" clip-path="url(#p01226089bb)" style="fill: none; stroke: #b0b0b0; stroke-width: 0.8; stroke-linecap: square"/>
     </g>
     <g id="line2d_16">
      <defs>
       <path id="m5911bd4191" d="M 0 0 
L -3.5 0 
" style="stroke: #000000; stroke-width: 0.8"/>
      </defs>
      <g>
       <use xlink:href="#m5911bd4191" x="57.6" y="271.296" style="stroke: #000000; stroke-width: 0.8"/>
      </g>
     </g>
     <g id="text_9">
      <!-- −0.04 -->
      <g transform="translate(25.6 275.143656) scale(0.1 -0.1)">
       <defs>
        <path id="MS-Gothic-2212" d="M 0 2475 
L 3200 2475 
L 3200 2075 
L 0 2075 
L 0 2475 
z
" transform="scale(0.015625)"/>
        <path id="MS-Gothic-2e" d="M 1100 600 
L 1100 50 
L 525 50 
L 525 600 
L 1100 600 
z
" transform="scale(0.015625)"/>
        <path id="MS-Gothic-34" d="M 1875 50 
L 1875 625 
L 1875 1200 
L 200 1200 
L 200 1675 
L 1875 4925 
L 2450 4925 
L 2450 1675 
L 2975 1675 
L 2975 1200 
L 2450 1200 
L 2450 50 
L 1875 50 
z
M 1875 1675 
L 1875 3875 
L 750 1675 
L 1875 1675 
z
" transform="scale(0.015625)"/>
       </defs>
       <use xlink:href="#MS-Gothic-2212"/>
       <use xlink:href="#MS-Gothic-30" x="50"/>
       <use xlink:href="#MS-Gothic-2e" x="100"/>
       <use xlink:href="#MS-Gothic-30" x="150"/>
       <use xlink:href="#MS-Gothic-34" x="200"/>
      </g>
     </g>
    </g>
    <g id="ytick_2">
     <g id="line2d_17">
      <path d="M 57.6 222.912 
L 414.72 222.912 
" clip-path="url(#p01226089bb)" style="fill: none; stroke: #b0b0b0; stroke-width: 0.8; stroke-linecap: square"/>
     </g>
     <g id="line2d_18">
      <g>
       <use xlink:href="#m5911bd4191" x="57.6" y="222.912" style="stroke: #000000; stroke-width: 0.8"/>
      </g>
     </g>
     <g id="text_10">
      <!-- −0.02 -->
      <g transform="translate(25.6 226.759656) scale(0.1 -0.1)">
       <use xlink:href="#MS-Gothic-2212"/>
       <use xlink:href="#MS-Gothic-30" x="50"/>
       <use xlink:href="#MS-Gothic-2e" x="100"/>
       <use xlink:href="#MS-Gothic-30" x="150"/>
       <use xlink:href="#MS-Gothic-32" x="200"/>
      </g>
     </g>
    </g>
    <g id="ytick_3">
     <g id="line2d_19">
      <path d="M 57.6 174.528 
L 414.72 174.528 
" clip-path="url(#p01226089bb)" style="fill: none; stroke: #b0b0b0; stroke-width: 0.8; stroke-linecap: square"/>
     </g>
     <g id="line2d_20">
      <g>
       <use xlink:href="#m5911bd4191" x="57.6" y="174.528" style="stroke: #000000; stroke-width: 0.8"/>
      </g>
     </g>
     <g id="text_11">
      <!-- 0.00 -->
      <g transform="translate(30.6 178.375656) scale(0.1 -0.1)">
       <use xlink:href="#MS-Gothic-30"/>
       <use xlink:href="#MS-Gothic-2e" x="50"/>
       <use xlink:href="#MS-Gothic-30" x="100"/>
       <use xlink:href="#MS-Gothic-30" x="150"/>
      </g>
     </g>
    </g>
    <g id="ytick_4">
     <g id="line2d_21">
      <path d="M 57.6 126.144 
L 414.72 126.144 
" clip-path="url(#p01226089bb)" style="fill: none; stroke: #b0b0b0; stroke-width: 0.8; stroke-linecap: square"/>
     </g>
     <g id="line2d_22">
      <g>
       <use xlink:href="#m5911bd4191" x="57.6" y="126.144" style="stroke: #000000; stroke-width: 0.8"/>
      </g>
     </g>
     <g id="text_12">
      <!-- 0.02 -->
      <g transform="translate(30.6 129.991656) scale(0.1 -0.1)">
       <use xlink:href="#MS-Gothic-30"/>
       <use xlink:href="#MS-Gothic-2e" x="50"/>
       <use xlink:href="#MS-Gothic-30" x="100"/>
       <use xlink:href="#MS-Gothic-32" x="150"/>
      </g>
     </g>
    </g>
    <g id="ytick_5">
     <g id="line2d_23">
      <path d="M 57.6 77.76 
L 414.72 77.76 
" clip-path="url(#p01226089bb)" style="fill: none; stroke: #b0b0b0; stroke-width: 0.8; stroke-linecap: square"/>
     </g>
     <g id="line2d_24">
      <g>
       <use xlink:href="#m5911bd4191" x="57.6" y="77.76" style="stroke: #000000; stroke-width: 0.8"/>
      </g>
     </g>
     <g id="text_13">
      <!-- 0.04 -->
      <g transform="translate(30.6 81.607656) scale(0.1 -0.1)">
       <use xlink:href="#MS-Gothic-30"/>
       <use xlink:href="#MS-Gothic-2e" x="50"/>
       <use xlink:href="#MS-Gothic-30" x="100"/>
       <use xlink:href="#MS-Gothic-34" x="150"/>
      </g>
     </g>
    </g>
    <g id="text_14">
     <!-- 支出額(円) -->
     <g transform="translate(19.5375 214.528) rotate(-90) scale(0.16 -0.16)">
      <defs>
       <path id="MS-Gothic-652f" d="M 3725 875 
Q 4550 350 5975 100 
L 5775 -525 
Q 4125 -150 3275 525 
Q 2175 -175 600 -550 
L 375 25 
Q 1850 300 2850 875 
Q 2200 1600 1850 2475 
L 1075 2475 
L 1075 2950 
L 2900 2950 
L 2900 3850 
L 500 3850 
L 500 4325 
L 2900 4325 
L 2900 5125 
L 3450 5125 
Q 3700 5075 3475 4925 
L 3475 4325 
L 5900 4325 
L 5900 3850 
L 3475 3850 
L 3475 2950 
L 4625 2950 
L 4775 3100 
L 5200 2725 
L 5100 2675 
Q 4475 1525 3725 875 
z
M 2450 2475 
Q 2775 1725 3300 1225 
Q 3900 1725 4300 2475 
L 2450 2475 
z
" transform="scale(0.015625)"/>
       <path id="MS-Gothic-51fa" d="M 1425 4525 
Q 1625 4500 1450 4375 
L 1450 3025 
L 2925 3025 
L 2925 5025 
L 3400 5025 
Q 3600 5000 3425 4875 
L 3425 3025 
L 4875 3025 
L 4875 4500 
L 5350 4500 
Q 5550 4475 5375 4350 
L 5375 2325 
L 4875 2325 
L 4875 2550 
L 3425 2550 
L 3425 400 
L 5075 400 
L 5075 1925 
L 5550 1925 
Q 5750 1900 5575 1775 
L 5575 -350 
L 5075 -350 
L 5075 -75 
L 1200 -75 
L 1200 -425 
L 700 -425 
L 700 1950 
L 1175 1950 
Q 1375 1925 1200 1800 
L 1200 400 
L 2925 400 
L 2925 2550 
L 1450 2550 
L 1450 2275 
L 950 2275 
L 950 4525 
L 1425 4525 
z
" transform="scale(0.015625)"/>
       <path id="MS-Gothic-984d" d="M 850 1300 
L 425 1100 
L 250 1550 
Q 1150 1900 1625 2300 
Q 1400 2500 1200 2725 
Q 925 2425 550 2175 
L 325 2600 
Q 1175 3100 1400 3925 
L 1825 3850 
Q 2000 3825 1800 3700 
L 1675 3450 
L 2525 3450 
L 2600 3525 
L 2975 3225 
Q 3025 3125 2875 3125 
Q 2650 2750 2225 2325 
Q 2600 2025 3450 1750 
L 3250 1250 
Q 2325 1725 1950 2025 
Q 1550 1675 1100 1450 
L 2775 1450 
L 2775 -350 
L 2350 -350 
L 2350 -225 
L 1275 -225 
L 1275 -475 
L 850 -475 
L 850 1300 
z
M 3525 525 
L 3525 3850 
L 4275 3850 
L 4450 4475 
L 3425 4475 
L 3425 4950 
L 6000 4950 
L 6000 4475 
L 4950 4475 
L 4675 3850 
L 5800 3850 
L 5800 525 
L 3525 525 
z
M 6000 -575 
Q 5425 -375 4825 50 
L 5150 425 
Q 5700 75 6250 -100 
L 6000 -575 
z
M 1900 2575 
Q 2100 2775 2350 3150 
L 1550 3150 
L 1450 3000 
Q 1675 2750 1900 2575 
z
M 3000 -75 
Q 3700 75 4150 400 
L 4475 0 
Q 4600 -175 4350 -100 
Q 3900 -375 3225 -600 
L 3000 -75 
z
M 2125 4475 
L 3200 4475 
L 3200 3600 
L 2775 3600 
L 2775 4075 
L 950 4075 
L 950 3425 
L 525 3425 
L 525 4475 
L 1625 4475 
L 1625 5125 
L 2100 5125 
Q 2300 5100 2125 4975 
L 2125 4475 
z
M 3950 1500 
L 3950 925 
L 5375 925 
L 5375 1500 
L 3950 1500 
z
M 3950 2475 
L 3950 1900 
L 5375 1900 
L 5375 2475 
L 3950 2475 
z
M 3950 3450 
L 3950 2875 
L 5375 2875 
L 5375 3450 
L 3950 3450 
z
M 2350 1050 
L 1275 1050 
L 1275 175 
L 2350 175 
L 2350 1050 
z
" transform="scale(0.015625)"/>
       <path id="MS-Gothic-28" d="M 2725 -575 
Q 1475 650 1475 2300 
Q 1475 3950 2725 5175 
L 3000 4900 
Q 1850 3825 1850 2300 
Q 1850 775 3000 -300 
L 2725 -575 
z
" transform="scale(0.015625)"/>
       <path id="MS-Gothic-5186" d="M 5575 75 
Q 5575 -325 5175 -325 
L 4525 -325 
L 4375 225 
L 4900 225 
Q 5000 225 5000 325 
L 5000 2000 
L 1325 2000 
L 1325 -350 
L 750 -350 
L 750 4725 
L 5575 4725 
L 5575 75 
z
M 5000 4250 
L 3400 4250 
L 3400 2475 
L 5000 2475 
L 5000 4250 
z
M 1325 4250 
L 1325 2475 
L 2900 2475 
L 2900 4250 
L 1325 4250 
z
" transform="scale(0.015625)"/>
       <path id="MS-Gothic-29" d="M 1700 2300 
Q 1700 650 450 -575 
L 175 -300 
Q 1325 775 1325 2300 
Q 1325 3825 175 4900 
L 450 5175 
Q 1700 3950 1700 2300 
z
" transform="scale(0.015625)"/>
      </defs>
      <use xlink:href="#MS-Gothic-652f"/>
      <use xlink:href="#MS-Gothic-51fa" x="100"/>
      <use xlink:href="#MS-Gothic-984d" x="200"/>
      <use xlink:href="#MS-Gothic-28" x="300"/>
      <use xlink:href="#MS-Gothic-5186" x="350"/>
      <use xlink:href="#MS-Gothic-29" x="450"/>
     </g>
    </g>
   </g>
   <g id="patch_33">
    <path d="M 57.6 307.584 
L 57.6 41.472 
" style="fill: none; stroke: #000000; stroke-width: 0.8; stroke-linejoin: miter; stroke-linecap: square"/>
   </g>
   <g id="patch_34">
    <path d="M 414.72 307.584 
L 414.72 41.472 
" style="fill: none; stroke: #000000; stroke-width: 0.8; stroke-linejoin: miter; stroke-linecap: square"/>
   </g>
   <g id="patch_35">
    <path d="M 57.6 307.584 
L 414.72 307.584 
" style="fill: none; stroke: #000000; stroke-width: 0.8; stroke-linejoin: miter; stroke-linecap: square"/>
   </g>
   <g id="patch_36">
    <path d="M 57.6 41.472 
L 414.72 41.472 
" style="fill: none; stroke: #000000; stroke-width: 0.8; stroke-linejoin: miter; stroke-linecap: square"/>
   </g>
  </g>
 </g>
 <defs>
  <clipPath id="p01226089bb">
   <rect x="57.6" y="41.472" width="357.12" height="266.112"/>
  </clipPath>
 </defs>
</svg>
